<?xml version="1.0" encoding="UTF-8" standalone="no"?>
<svg viewBox="0 0 1024 1024" version="1.1" xmlns="http://www.w3.org/2000/svg" xmlns:svg="http://www.w3.org/2000/svg">
    <rect x="0" y="0" width="1024" height="1024" rx="128" ry="128" fill="#ffffff" />
    <path d="m 242.90861,804.53437 q -17.85831,0 -30.84617,-1.62348 -13.52903,-1.62348 -23.26993,-3.78813 v -81.17415 q 8.65858,1.62349 18.39948,3.24697 9.19973,2.16464 20.02295,2.16464 18.94064,0 29.2227,-7.57625 10.28206,-7.57626 14.61135,-23.26992 4.32928,-15.15251 4.32928,-37.88128 V 296.92535 h 104.98524 v 348.50769 q 0,57.90423 -17.85831,93.07969 -17.31716,35.17547 -48.16333,50.32798 -30.84618,15.69366 -71.43326,15.69366 z" fill="#333333" />
    <path d="M 794.89245,683.31431 H 689.90721 V 525.83645 H 568.68715 V 683.31431 H 463.70191 V 296.92535 H 568.68715 V 440.33301 H 689.90721 V 296.92535 h 104.98524 z" fill="#333333" />
</svg>
